<svg xmlns="http://www.w3.org/2000/svg" width="64" height="64" viewBox="0 0 64 64">
  <defs>
    <linearGradient id="g" x1="0" y1="0" x2="1" y2="1">
      <stop offset="0" stop-color="#7c3aed"/>
      <stop offset="1" stop-color="#22d3ee"/>
    </linearGradient>
  </defs>
  <rect x="4" y="4" width="56" height="56" rx="14" fill="url(#g)"/>
  <g fill="#fff">
    <path d="M24 40h-2a2 2 0 0 1-2-2v-6a2 2 0 0 1 2-2h2l2-4h12l2 4h2a2 2 0 0 1 2 2v6a2 2 0 0 1-2 2h-2l-2 4H26l-2-4zm4-12-2 4v6l2 4h8l2-4v-6l-2-4h-8z" opacity="0.9"/>
    <text x="32" y="50" text-anchor="middle" font-family="JetBrains Mono, monospace" font-size="9" font-weight="700" opacity="0.95">DMT</text>
  </g>
</svg>
